<svg width="34" height="34" viewBox="0 0 34 34" fill="none" xmlns="http://www.w3.org/2000/svg">
<circle cx="16.8001" cy="16.7999" r="16.7999" fill="#F53838"/>
<path d="M16.8 0C7.5215 0 0 7.5215 0 16.8C0 26.0785 7.5215 33.6 16.8 33.6C26.0785 33.6 33.6 26.0785 33.6 16.8C33.6 7.5215 26.0785 0 16.8 0ZM23.6338 13.762C23.6408 13.9055 23.6425 14.049 23.6425 14.189C23.6425 18.564 20.3158 23.6058 14.2293 23.6058C12.4308 23.6087 10.6697 23.0922 9.15775 22.1183C9.415 22.1498 9.67925 22.162 9.947 22.162C11.4975 22.162 12.9238 21.6353 14.056 20.7463C13.366 20.7327 12.6974 20.5042 12.1434 20.0927C11.5895 19.6811 11.1777 19.107 10.9655 18.4503C11.461 18.5445 11.9715 18.5247 12.4583 18.3925C11.7093 18.2411 11.0358 17.8353 10.552 17.2439C10.0681 16.6526 9.80369 15.9121 9.8035 15.148V15.1078C10.2498 15.3545 10.7608 15.505 11.3033 15.5225C10.6011 15.0551 10.1041 14.3372 9.91383 13.5155C9.72353 12.6938 9.85434 11.8304 10.2795 11.102C11.1107 12.124 12.1472 12.9601 13.322 13.556C14.4968 14.152 15.7836 14.4947 17.0993 14.5618C16.932 13.8518 17.004 13.1065 17.304 12.4416C17.6041 11.7768 18.1153 11.2297 18.7584 10.8855C19.4014 10.5412 20.1402 10.419 20.8598 10.5379C21.5795 10.6568 22.2396 11.0102 22.7378 11.543C23.4783 11.3965 24.1885 11.1248 24.8378 10.7398C24.5909 11.5065 24.0742 12.1576 23.3835 12.572C24.0395 12.493 24.68 12.3166 25.284 12.0488C24.8404 12.7136 24.2815 13.2938 23.6338 13.762Z" fill="white"/>
</svg>
